<?xml version="1.0" encoding="iso-8859-1"?>
<!-- Uploaded to: SVG Repo, www.svgrepo.com, Generator: SVG Repo Mixer Tools -->
<svg height="800px" width="800px" version="1.1" id="Layer_1" xmlns="http://www.w3.org/2000/svg" xmlns:xlink="http://www.w3.org/1999/xlink" 
	 viewBox="0 0 512.427 512.427" xml:space="preserve">
<g transform="translate(1 1)">
	<polygon style="fill:#FFE100;" points="33.172,135.96 33.172,374.893 255.039,502.893 476.905,374.893 476.905,135.96 
		255.039,7.96 	"/>
	<polygon style="fill:#FFA800;" points="255.039,7.96 255.039,7.96 451.305,135.96 451.305,374.893 255.039,502.893 
		476.905,374.893 476.905,135.96 	"/>
	<polygon style="fill:#FFFFFF;" points="255.039,7.96 255.039,7.96 58.772,135.96 58.772,374.893 255.039,502.893 33.172,374.893 
		33.172,135.96 	"/>
	<polygon style="fill:#00DA6C;" points="186.772,286.147 186.772,224.707 255.039,185.453 323.305,224.707 323.305,286.147 
		255.039,325.4 	"/>
	<g>
		<path style="fill:#63D3FD;" d="M280.639,118.893c0,14.507-11.093,25.6-25.6,25.6c-14.507,0-25.6-11.093-25.6-25.6
			c0-14.507,11.093-25.6,25.6-25.6C269.545,93.293,280.639,104.387,280.639,118.893"/>
		<path style="fill:#63D3FD;" d="M280.639,391.96c0,14.507-11.093,25.6-25.6,25.6c-14.507,0-25.6-11.093-25.6-25.6
			s11.093-25.6,25.6-25.6C269.545,366.36,280.639,377.453,280.639,391.96"/>
		<path style="fill:#63D3FD;" d="M386.452,211.053c-11.947,6.827-28.16,2.56-34.987-10.24s-2.56-28.16,10.24-34.987
			c11.947-6.827,28.16-2.56,34.987,10.24C403.519,188.867,399.252,204.227,386.452,211.053"/>
		<path style="fill:#63D3FD;" d="M148.372,344.173c-11.947,6.827-28.16,2.56-34.987-10.24c-6.827-11.947-2.56-28.16,10.24-34.987
			c11.947-6.827,28.16-2.56,34.987,10.24C164.585,321.987,160.319,337.347,148.372,344.173"/>
		<path style="fill:#63D3FD;" d="M123.625,211.053c11.947,6.827,28.16,2.56,34.987-10.24c6.827-12.8,2.56-28.16-10.24-34.987
			c-11.947-6.827-28.16-2.56-34.987,10.24C106.559,188.867,110.825,204.227,123.625,211.053"/>
		<path style="fill:#63D3FD;" d="M361.705,344.173c11.947,6.827,28.16,2.56,34.987-10.24c6.827-11.947,2.56-28.16-10.24-34.987
			c-11.947-6.827-28.16-2.56-34.987,10.24C345.492,321.987,349.759,337.347,361.705,344.173"/>
	</g>
	<path d="M255.039,511.427c-1.707,0-2.56,0-4.267-0.853l-221.867-128c-2.56-1.707-4.267-4.267-4.267-7.68V135.96
		c0-3.413,1.707-5.973,4.267-7.68l221.867-128c2.56-1.707,5.973-1.707,8.533,0l221.867,128c2.56,1.707,4.267,4.267,4.267,7.68
		v238.933c0,3.413-1.707,5.973-4.267,7.68l-221.867,128C257.599,511.427,256.745,511.427,255.039,511.427z M41.705,369.773
		l213.333,122.88l213.333-122.88V141.08L255.039,18.2L41.705,141.08V369.773z"/>
	<path d="M255.039,333.933c-1.707,0-2.56,0-4.267-0.853l-68.267-39.253c-2.56-1.707-4.267-4.267-4.267-7.68v-61.44
		c0-3.413,1.707-5.973,4.267-7.68l68.267-39.253c2.56-1.707,5.973-1.707,8.533,0l68.267,39.253c2.56,1.707,4.267,4.267,4.267,7.68
		v61.44c0,3.413-1.707,5.973-4.267,7.68l-68.267,39.253C257.599,333.933,256.745,333.933,255.039,333.933z M195.305,281.027
		l59.733,34.133l59.733-34.133v-51.2l-59.733-34.133l-59.733,34.133V281.027z"/>
	<path d="M109.972,187.16c-1.707,0-2.56,0-4.267-0.853l-76.8-42.667c-4.267-2.56-5.12-7.68-3.413-11.947
		c2.56-4.267,7.68-5.973,11.947-3.413l76.8,42.667c4.267,2.56,5.973,7.68,3.413,11.947
		C115.945,185.453,113.385,187.16,109.972,187.16z"/>
	<path d="M348.905,315.16c-1.707,0-2.56,0-4.267-0.853l-187.733-102.4c-4.267-2.56-5.973-7.68-3.413-11.947
		c2.56-4.267,7.68-5.973,11.947-3.413l187.733,102.4c4.267,2.56,5.973,7.68,3.413,11.947
		C354.879,313.453,352.319,315.16,348.905,315.16z"/>
	<path d="M476.905,383.427c-1.707,0-2.56,0-4.267-0.853l-76.8-42.667c-4.267-2.56-5.973-7.68-3.413-11.947s7.68-5.973,11.947-3.413
		l76.8,42.667c4.267,2.56,5.973,7.68,3.413,11.947C482.879,381.72,480.319,383.427,476.905,383.427z"/>
	<path d="M33.172,383.427c-3.413,0-5.973-1.707-7.68-4.267c-1.707-4.267-0.853-9.387,3.413-11.947l76.8-42.667
		c4.267-1.707,9.387-0.853,11.947,3.413c2.56,4.267,0.853,9.387-3.413,11.947l-76.8,42.667
		C35.732,383.427,34.879,383.427,33.172,383.427z"/>
	<path d="M161.172,315.16c-3.413,0-5.973-1.707-7.68-4.267c-2.56-4.267-0.853-9.387,3.413-11.947l187.733-102.4
		c4.267-2.56,9.387-0.853,11.947,3.413s0.853,9.387-3.413,11.947l-187.733,102.4C163.732,315.16,162.879,315.16,161.172,315.16z"/>
	<path d="M255.039,101.827c-5.12,0-8.533-3.413-8.533-8.533V7.96c0-5.12,3.413-8.533,8.533-8.533c5.12,0,8.533,3.413,8.533,8.533
		v85.333C263.572,98.413,260.159,101.827,255.039,101.827z"/>
	<path d="M255.039,511.427c-5.12,0-8.533-3.413-8.533-8.533V417.56c0-5.12,3.413-8.533,8.533-8.533c5.12,0,8.533,3.413,8.533,8.533
		v85.333C263.572,508.013,260.159,511.427,255.039,511.427z"/>
	<path d="M255.039,374.893c-5.12,0-8.533-3.413-8.533-8.533V144.493c0-5.12,3.413-8.533,8.533-8.533c5.12,0,8.533,3.413,8.533,8.533
		V366.36C263.572,371.48,260.159,374.893,255.039,374.893z"/>
	<path d="M255.039,153.027c-18.773,0-34.133-15.36-34.133-34.133s15.36-34.133,34.133-34.133s34.133,15.36,34.133,34.133
		S273.812,153.027,255.039,153.027z M255.039,101.827c-9.387,0-17.067,7.68-17.067,17.067c0,9.387,7.68,17.067,17.067,17.067
		c9.387,0,17.067-7.68,17.067-17.067C272.105,109.507,264.425,101.827,255.039,101.827z"/>
	<path d="M255.039,426.093c-18.773,0-34.133-15.36-34.133-34.133s15.36-34.133,34.133-34.133s34.133,15.36,34.133,34.133
		S273.812,426.093,255.039,426.093z M255.039,374.893c-9.387,0-17.067,7.68-17.067,17.067s7.68,17.067,17.067,17.067
		c9.387,0,17.067-7.68,17.067-17.067S264.425,374.893,255.039,374.893z"/>
	<path d="M374.505,223c-12.8,0-23.893-6.827-29.867-17.92c-9.387-16.213-3.413-37.547,13.653-46.08
		c5.12-2.56,11.093-4.267,16.213-4.267c12.8,0,23.893,6.827,29.867,17.92c4.267,7.68,5.12,17.067,3.413,25.6
		c-2.56,8.533-8.533,16.213-16.213,20.48C385.599,221.293,380.479,223,374.505,223z M374.505,171.8c-2.56,0-5.973,0.853-8.533,2.56
		c-8.533,4.267-11.093,15.36-6.827,23.04s15.36,11.093,23.04,6.827c4.267-2.56,6.827-5.973,8.533-10.24
		c0.853-4.267,0.853-9.387-1.707-12.8C386.452,175.213,380.479,171.8,374.505,171.8z"/>
	<path d="M135.572,356.12c-12.8,0-23.893-6.827-29.867-17.92c-4.267-7.68-5.12-17.067-3.413-25.6
		c1.707-8.533,8.533-16.213,16.213-20.48c5.12-2.56,11.093-4.267,16.213-4.267c12.8,0,23.893,6.827,29.867,17.92
		c4.267,7.68,5.12,17.067,3.413,25.6c-2.56,8.533-8.533,16.213-16.213,20.48C147.519,354.413,141.545,356.12,135.572,356.12z
		 M135.572,304.92c-2.56,0-5.973,0.853-8.533,2.56c-4.267,2.56-6.827,5.973-8.533,10.24s-0.853,9.387,1.707,12.8
		c4.267,7.68,15.36,11.093,23.04,6.827c4.267-2.56,6.827-5.973,8.533-10.24s0.853-9.387-1.707-12.8
		C147.519,308.333,141.545,304.92,135.572,304.92z"/>
	<path d="M135.572,223L135.572,223c-5.973,0-11.093-1.707-16.213-4.267c-7.68-4.267-13.653-11.947-16.213-20.48
		c-2.56-8.533-1.707-17.92,3.413-25.6c5.973-11.093,17.067-17.92,29.867-17.92c5.973,0,11.093,1.707,16.213,4.267
		c16.213,9.387,22.187,29.867,13.653,46.08C159.465,216.173,148.372,223,135.572,223z M135.572,171.8
		c-5.973,0-11.947,3.413-15.36,8.533c-2.56,4.267-2.56,8.533-1.707,12.8s4.267,7.68,8.533,10.24
		c7.68,4.267,18.773,1.707,23.04-6.827c4.267-8.533,1.707-18.773-6.827-23.04C141.545,172.653,138.985,171.8,135.572,171.8z"/>
	<path d="M374.505,356.12L374.505,356.12c-5.973,0-11.093-1.707-16.213-4.267c-7.68-4.267-13.653-11.947-16.213-20.48
		c-2.56-8.533-1.707-17.92,3.413-25.6c5.973-11.093,17.067-17.92,29.867-17.92c5.973,0,11.093,1.707,16.213,4.267
		c7.68,4.267,13.653,11.947,16.213,20.48c2.56,8.533,1.707,17.92-3.413,25.6C398.399,349.293,386.452,356.12,374.505,356.12z
		 M374.505,304.92c-5.973,0-11.947,3.413-15.36,8.533c-2.56,4.267-2.56,8.533-1.707,12.8c0.853,4.267,4.267,7.68,8.533,10.24
		c7.68,4.267,18.773,1.707,23.04-6.827c2.56-4.267,2.56-8.533,1.707-12.8c-0.853-4.267-4.267-7.68-8.533-10.24
		C380.479,305.773,377.065,304.92,374.505,304.92z"/>
	<path d="M400.105,187.16c-3.413,0-5.973-1.707-7.68-4.267c-2.56-4.267-0.853-9.387,3.413-11.947l76.8-42.667
		c4.267-2.56,9.387-0.853,11.947,3.413c2.56,4.267,0.853,9.387-3.413,11.947l-76.8,42.667
		C402.665,187.16,401.812,187.16,400.105,187.16z"/>
</g>
</svg>